<svg width="14" height="8" viewBox="0 0 14 8" fill="none" xmlns="http://www.w3.org/2000/svg">
<path d="M13.0283 0.179359L6.99938 6.55527L0.970513 0.179359C0.862797 0.0652126 0.718197 0.00130859 0.567624 0.00130859C0.41705 0.00130859 0.27245 0.0652126 0.164734 0.179359C0.112578 0.234801 0.0711434 0.300975 0.0428567 0.374008C0.01457 0.447041 0 0.525463 0 0.604682C0 0.6839 0.01457 0.762322 0.0428567 0.835355C0.0711434 0.908388 0.112578 0.974563 0.164734 1.03L6.5784 7.81423C6.69103 7.93334 6.8421 8 6.99938 8C7.15667 8 7.30773 7.93334 7.42037 7.81423L13.834 1.03131C13.8866 0.97583 13.9283 0.909493 13.9568 0.836218C13.9853 0.762943 14 0.684216 14 0.604682C14 0.525148 13.9853 0.44642 13.9568 0.373145C13.9283 0.29987 13.8866 0.233533 13.834 0.17805C13.7263 0.0639034 13.5817 0 13.4311 0C13.2806 0 13.136 0.0639034 13.0283 0.17805V0.179359Z" fill="#005BFF"/>
</svg>
