<svg width="29" height="20" viewBox="0 0 29 20" fill="none" xmlns="http://www.w3.org/2000/svg">
<path fill-rule="evenodd" clip-rule="evenodd" d="M27.6615 2.11114L27.4385 2.22225C27.1606 2.37081 26.9176 2.57636 26.7253 2.82534C26.533 3.07432 26.396 3.36107 26.3231 3.66669L25.4308 8.66669C25.4308 9.11114 25.4308 9.55558 25.8769 9.88892L26.7692 10.8889V17.7778C26.7635 17.8217 26.771 17.8663 26.7909 17.9059C26.8108 17.9455 26.8421 17.9783 26.8808 18H27.8846L28.1077 17.7778V2.22225C28.1136 2.18079 28.1076 2.13853 28.0904 2.10032C28.0732 2.06212 28.0455 2.02953 28.0106 2.0063C27.9756 1.98308 27.9347 1.97017 27.8927 1.96906C27.8507 1.96795 27.8092 1.97868 27.7731 2.00003L27.6615 2.11114ZM2.78847 2.00003V6.66669C2.78847 7.22225 2.45385 7.55558 2.11924 7.55558C1.78462 7.55558 1.45001 7.22225 1.45001 6.66669V2.22225C1.26509 2.20684 1.07898 2.22991 0.903487 2.28998C0.727996 2.35006 0.566962 2.44583 0.43061 2.57121C0.294257 2.69659 0.185566 2.84884 0.111437 3.01831C0.0373088 3.18777 -0.000637433 3.37073 8.09986e-06 3.55558V6.88892C8.09986e-06 7.88892 0.5577 8.7778 1.33847 9.11114V17.7778C1.33847 17.7778 1.33847 18 1.56155 18H2.45385L2.67693 17.7778V8.88892C3.4577 8.66669 4.01539 7.7778 4.01539 6.66669V3.55558C4.01539 3.20196 3.87438 2.86282 3.62337 2.61277C3.37236 2.36273 3.03191 2.22225 2.67693 2.22225L2.78847 2.00003ZM14.5 17.7778C12.4293 17.7778 10.4434 16.9584 8.97914 15.4997C7.51491 14.0411 6.69232 12.0628 6.69232 10C6.69232 7.93723 7.51491 5.95892 8.97914 4.50031C10.4434 3.04169 12.4293 2.22225 14.5 2.22225C16.5707 2.22225 18.5567 3.04169 20.0209 4.50031C21.4851 5.95892 22.3077 7.93723 22.3077 10C22.3077 12.0628 21.4851 14.0411 20.0209 15.4997C18.5567 16.9584 16.5707 17.7778 14.5 17.7778ZM14.5 0.888916C12.0595 0.888916 9.71896 1.85469 7.99327 3.57377C6.26757 5.29285 5.29808 7.62443 5.29808 10.0556C5.29808 12.4867 6.26757 14.8183 7.99327 16.5374C9.71896 18.2565 12.0595 19.2222 14.5 19.2222C16.9405 19.2222 19.2811 18.2565 21.0068 16.5374C22.7324 14.8183 23.7019 12.4867 23.7019 10.0556C23.7019 7.62443 22.7324 5.29285 21.0068 3.57377C19.2811 1.85469 16.9405 0.888916 14.5 0.888916Z" fill="#292F37"/>
<path fill-rule="evenodd" clip-rule="evenodd" d="M14.4999 14.7779C13.2473 14.7489 12.0559 14.2327 11.1804 13.3399C10.3049 12.447 9.81496 11.2483 9.8153 10.0001C9.84367 8.77134 10.3463 7.6007 11.2188 6.73159C12.0913 5.86247 13.2664 5.36173 14.4999 5.33347C15.7528 5.33313 16.9562 5.82122 17.8525 6.69334C18.7488 7.56545 19.2669 8.75235 19.2961 10.0001C19.2961 11.2673 18.7908 12.4825 17.8913 13.3785C16.9919 14.2745 15.7719 14.7779 14.4999 14.7779ZM14.4999 4.44458C13.0208 4.44458 11.6023 5.0299 10.5564 6.07176C9.51056 7.11363 8.92299 8.52671 8.92299 10.0001C8.90815 10.739 9.04145 11.4734 9.31506 12.1603C9.58868 12.8472 9.99712 13.4728 10.5165 14.0005C11.0358 14.5282 11.6556 14.9474 12.3396 15.2335C13.0236 15.5197 13.7581 15.667 14.4999 15.6668C15.2416 15.6816 15.9788 15.5488 16.6684 15.2762C17.3579 15.0037 17.986 14.5968 18.5157 14.0794C19.0454 13.5621 19.4662 12.9446 19.7534 12.2632C20.0407 11.5819 20.1885 10.8503 20.1884 10.1112C20.2032 9.37239 20.0699 8.638 19.7963 7.95109C19.5227 7.26418 19.1142 6.63856 18.5949 6.11085C18.0755 5.58314 17.4557 5.16396 16.7717 4.87784C16.0877 4.59173 15.3533 4.44443 14.6115 4.44458" fill="#292F37"/>
</svg>
