<svg width="11" height="15" viewBox="0 0 11 15" fill="none" xmlns="http://www.w3.org/2000/svg">
<path d="M0.659141 5.93177H9.88629C10.0648 5.93177 10.2193 5.86659 10.3497 5.73612C10.48 5.60569 10.5455 5.45124 10.5455 5.27273C10.5455 5.09422 10.4801 4.93984 10.3497 4.80923L5.73612 0.195643C5.60577 0.0653586 5.45135 0 5.27273 0C5.09411 0 4.9397 0.0653586 4.80923 0.195643L0.195643 4.80923C0.0651783 4.9397 0 5.09422 0 5.27273C0 5.45121 0.0651783 5.60569 0.195643 5.73612C0.326252 5.86659 0.480667 5.93177 0.659141 5.93177Z" fill="#C1C1C1"/>
<path d="M9.88629 8.56836H0.659141C0.480523 8.56836 0.326108 8.63357 0.195643 8.76389C0.0651783 8.89436 0 9.04877 0 9.22728C0 9.40579 0.0651783 9.56032 0.195643 9.69071L4.80923 14.3042C4.93984 14.4347 5.09426 14.5 5.27273 14.5C5.45121 14.5 5.60577 14.4347 5.73612 14.3042L10.3497 9.69067C10.48 9.56032 10.5455 9.40579 10.5455 9.22725C10.5455 9.04877 10.4801 8.89436 10.3497 8.76386C10.2194 8.63343 10.0648 8.56836 9.88629 8.56836Z" fill="#C1C1C1"/>
</svg>
