<svg width="19" height="20" viewBox="0 0 19 20" fill="none" xmlns="http://www.w3.org/2000/svg">
<path fill-rule="evenodd" clip-rule="evenodd" d="M18.0953 14.1818C18.0955 14.7387 17.9849 15.29 17.7701 15.8034C17.5553 16.3168 17.2406 16.7819 16.8445 17.1714C16.4484 17.5609 15.9789 17.8671 15.4634 18.0718C14.948 18.2765 14.3971 18.3757 13.843 18.3636H4.97629C3.88824 18.3399 2.85274 17.8888 2.0917 17.1071C1.33065 16.3254 0.904605 15.2753 0.904862 14.1818V5.27273C0.904862 4.16364 1.34335 3.09998 2.12386 2.31573C2.90436 1.53149 3.96296 1.09091 5.06677 1.09091H13.9334C14.48 1.09091 15.0212 1.19907 15.5261 1.40923C16.0311 1.61939 16.4899 1.92742 16.8763 2.31573C17.2628 2.70405 17.5694 3.16505 17.7785 3.67241C17.9877 4.17977 18.0953 4.72356 18.0953 5.27273V14.1818ZM13.843 0.363635H4.97629C3.68052 0.363635 2.43782 0.880841 1.52157 1.80147C0.60532 2.72211 0.0905762 3.97075 0.0905762 5.27273V14.1818C0.0905762 15.4838 0.60532 16.7324 1.52157 17.6531C2.43782 18.5737 3.68052 19.0909 4.97629 19.0909H13.843C14.4921 19.103 15.1372 18.9849 15.7404 18.7436C16.3437 18.5024 16.893 18.1427 17.3563 17.6856C17.8196 17.2285 18.1876 16.6833 18.4388 16.0817C18.69 15.4801 18.8193 14.8342 18.8191 14.1818V5.27273C18.8193 4.62033 18.69 3.97446 18.4388 3.37286C18.1876 2.77126 17.8196 2.22599 17.3563 1.76893C16.893 1.31187 16.3437 0.952188 15.7404 0.710898C15.1372 0.469608 14.4921 0.351554 13.843 0.363635Z" fill="#292F37"/>
<path fill-rule="evenodd" clip-rule="evenodd" d="M10.5859 10.3637H7.32878V6.5455H10.5859C11.6716 6.5455 12.4859 7.45459 12.4859 8.45459C12.4865 8.94555 12.2988 9.41785 11.9618 9.77337C11.6248 10.1289 11.1645 10.3403 10.6764 10.3637H10.5859ZM10.6764 5.45459H6.69544C6.55147 5.45459 6.41339 5.51206 6.31159 5.61435C6.20978 5.71664 6.15259 5.85538 6.15259 6.00004V13.9091C6.15259 13.9808 6.16663 14.0517 6.19391 14.1179C6.22119 14.184 6.26118 14.2442 6.31159 14.2948C6.362 14.3455 6.42184 14.3857 6.4877 14.4131C6.55357 14.4405 6.62416 14.4546 6.69544 14.4546C6.76673 14.4546 6.83732 14.4405 6.90319 14.4131C6.96905 14.3857 7.02889 14.3455 7.0793 14.2948C7.12971 14.2442 7.1697 14.184 7.19698 14.1179C7.22426 14.0517 7.2383 13.9808 7.2383 13.9091V11.4546H10.4954C10.8951 11.4668 11.2931 11.3982 11.6658 11.2529C12.0386 11.1076 12.3785 10.8885 12.6654 10.6087C12.9523 10.3289 13.1804 9.99406 13.336 9.62403C13.4917 9.254 13.5718 8.85632 13.5716 8.45459C13.5716 8.06062 13.4944 7.67052 13.3444 7.30654C13.1943 6.94256 12.9744 6.61185 12.6971 6.33327C12.4199 6.05469 12.0907 5.83372 11.7285 5.68295C11.3663 5.53219 10.978 5.45459 10.5859 5.45459" fill="#292F37"/>
<path fill-rule="evenodd" clip-rule="evenodd" d="M15.381 13.9092C15.394 14.1514 15.3562 14.3936 15.2698 14.6202C15.1835 14.8467 15.0507 15.0524 14.88 15.224C14.7093 15.3955 14.5045 15.529 14.2791 15.6157C14.0536 15.7024 13.8125 15.7405 13.5714 15.7273H5.33811C5.09705 15.7405 4.85594 15.7024 4.63048 15.6157C4.40502 15.529 4.20027 15.3955 4.02957 15.224C3.85886 15.0524 3.72602 14.8467 3.6397 14.6202C3.55339 14.3936 3.51553 14.1514 3.52859 13.9092V5.45462C3.52826 5.21993 3.57554 4.98764 3.66753 4.77192C3.75952 4.55621 3.8943 4.36159 4.06364 4.19995C4.23298 4.03831 4.43332 3.91304 4.65244 3.83178C4.87156 3.75053 5.10487 3.71499 5.33811 3.72734H13.5714C13.805 3.72702 14.0362 3.77452 14.2509 3.86695C14.4656 3.95939 14.6593 4.09481 14.8201 4.26496C14.981 4.4351 15.1057 4.6364 15.1865 4.85657C15.2674 5.07674 15.3028 5.31116 15.2905 5.54552V13.9092H15.381ZM13.5714 2.72734H5.33811C4.96974 2.71521 4.60259 2.77615 4.25767 2.90668C3.91275 3.0372 3.59682 3.23476 3.32793 3.48804C3.05904 3.74133 2.84248 4.04539 2.69061 4.38282C2.53875 4.72026 2.45456 5.08447 2.44287 5.45462V13.9092C2.44249 14.6411 2.72554 15.3445 3.23212 15.8705C3.73871 16.3964 4.42908 16.7037 5.15716 16.7273H13.6619C14.3746 16.7046 15.0519 16.41 15.5561 15.9033C16.0603 15.3967 16.3536 14.7162 16.3762 14.0001V5.45462C16.3536 4.73852 16.0603 4.05796 15.5561 3.55135C15.0519 3.04473 14.3746 2.75009 13.6619 2.72734H13.5714Z" fill="#292F37"/>
</svg>
