<svg width="233" height="233" viewBox="0 0 233 233" fill="none" xmlns="http://www.w3.org/2000/svg">
<path d="M7.79932 74.5904C-1.19473 97.9183 -2.44554 123.521 4.23175 147.614C10.909 171.708 25.1602 193.014 44.8791 208.384C64.598 223.754 88.7385 232.373 113.733 232.967C138.728 233.561 163.25 226.098 183.677 211.682L149.921 163.853C139.758 171.025 127.558 174.738 115.123 174.443C102.689 174.147 90.6787 169.859 80.8685 162.212C71.0583 154.566 63.9684 143.966 60.6464 131.979C57.3245 119.993 57.9467 107.256 62.4213 95.6499L7.79932 74.5904Z" fill="url(#paint0_linear_3_411)"/>
<path d="M116.5 0C140.92 2.912e-07 164.722 7.6734 184.543 21.9359C204.365 36.1985 219.204 56.329 226.963 79.483C234.722 102.637 235.009 127.644 227.784 150.97C220.558 174.296 206.186 194.762 186.697 209.476L151.423 162.756C161.119 155.436 168.269 145.254 171.864 133.649C175.458 122.044 175.315 109.603 171.455 98.084C167.595 86.5648 160.213 76.5499 150.352 69.4543C140.49 62.3586 128.649 58.5411 116.5 58.5411V0Z" fill="url(#paint1_linear_3_411)"/>
<path d="M8.74082 72.2258C17.3604 51.2465 31.9165 33.2395 50.6231 20.4142C69.3298 7.5888 91.3734 0.502885 114.049 0.0257781L115.281 58.5539C103.999 58.7913 93.0328 62.3166 83.7262 68.6972C74.4196 75.0778 67.1779 84.0363 62.8897 94.4735L8.74082 72.2258Z" fill="url(#paint2_linear_3_411)"/>
<path d="M56.6948 41.75V39.878H60.4388V53H58.3688V41.75H56.6948ZM63.2577 46.268C63.2577 44.192 63.6057 42.572 64.3017 41.408C65.0097 40.232 66.2217 39.644 67.9377 39.644C69.6537 39.644 70.8597 40.232 71.5557 41.408C72.2637 42.572 72.6177 44.192 72.6177 46.268C72.6177 48.368 72.2637 50.012 71.5557 51.2C70.8597 52.376 69.6537 52.964 67.9377 52.964C66.2217 52.964 65.0097 52.376 64.3017 51.2C63.6057 50.012 63.2577 48.368 63.2577 46.268ZM70.6017 46.268C70.6017 45.296 70.5357 44.474 70.4037 43.802C70.2837 43.13 70.0317 42.584 69.6477 42.164C69.2637 41.732 68.6937 41.516 67.9377 41.516C67.1817 41.516 66.6117 41.732 66.2277 42.164C65.8437 42.584 65.5857 43.13 65.4537 43.802C65.3337 44.474 65.2737 45.296 65.2737 46.268C65.2737 47.276 65.3337 48.122 65.4537 48.806C65.5737 49.49 65.8257 50.042 66.2097 50.462C66.6057 50.882 67.1817 51.092 67.9377 51.092C68.6937 51.092 69.2637 50.882 69.6477 50.462C70.0437 50.042 70.3017 49.49 70.4217 48.806C70.5417 48.122 70.6017 47.276 70.6017 46.268ZM74.465 43.046C74.465 42.17 74.717 41.486 75.221 40.994C75.737 40.49 76.397 40.238 77.201 40.238C78.005 40.238 78.659 40.49 79.163 40.994C79.679 41.486 79.937 42.17 79.937 43.046C79.937 43.922 79.679 44.612 79.163 45.116C78.659 45.62 78.005 45.872 77.201 45.872C76.397 45.872 75.737 45.62 75.221 45.116C74.717 44.612 74.465 43.922 74.465 43.046ZM85.445 40.472L78.263 53H76.247L83.429 40.472H85.445ZM77.201 41.48C76.445 41.48 76.067 42.002 76.067 43.046C76.067 44.102 76.445 44.63 77.201 44.63C77.561 44.63 77.837 44.504 78.029 44.252C78.233 43.988 78.335 43.586 78.335 43.046C78.335 42.002 77.957 41.48 77.201 41.48ZM81.791 50.408C81.791 49.532 82.043 48.848 82.547 48.356C83.063 47.852 83.723 47.6 84.527 47.6C85.319 47.6 85.967 47.852 86.471 48.356C86.987 48.848 87.245 49.532 87.245 50.408C87.245 51.284 86.987 51.974 86.471 52.478C85.967 52.982 85.319 53.234 84.527 53.234C83.723 53.234 83.063 52.982 82.547 52.478C82.043 51.974 81.791 51.284 81.791 50.408ZM84.509 48.842C83.753 48.842 83.375 49.364 83.375 50.408C83.375 51.452 83.753 51.974 84.509 51.974C85.265 51.974 85.643 51.452 85.643 50.408C85.643 49.364 85.265 48.842 84.509 48.842Z" fill="#2D3134"/>
<path d="M188.378 111.118C188.45 110.002 188.876 109.132 189.656 108.508C190.448 107.884 191.456 107.572 192.68 107.572C193.52 107.572 194.246 107.722 194.858 108.022C195.47 108.322 195.932 108.73 196.244 109.246C196.556 109.762 196.712 110.344 196.712 110.992C196.712 111.736 196.514 112.372 196.118 112.9C195.722 113.428 195.248 113.782 194.696 113.962V114.034C195.404 114.25 195.956 114.646 196.352 115.222C196.748 115.786 196.946 116.512 196.946 117.4C196.946 118.108 196.784 118.738 196.46 119.29C196.136 119.842 195.656 120.28 195.02 120.604C194.384 120.916 193.622 121.072 192.734 121.072C191.438 121.072 190.37 120.742 189.53 120.082C188.702 119.41 188.258 118.45 188.198 117.202H190.178C190.226 117.838 190.472 118.36 190.916 118.768C191.36 119.164 191.96 119.362 192.716 119.362C193.448 119.362 194.012 119.164 194.408 118.768C194.804 118.36 195.002 117.838 195.002 117.202C195.002 116.362 194.732 115.768 194.192 115.42C193.664 115.06 192.848 114.88 191.744 114.88H191.276V113.188H191.762C192.734 113.176 193.472 113.014 193.976 112.702C194.492 112.39 194.75 111.898 194.75 111.226C194.75 110.65 194.564 110.194 194.192 109.858C193.82 109.51 193.292 109.336 192.608 109.336C191.936 109.336 191.414 109.51 191.042 109.858C190.67 110.194 190.448 110.614 190.376 111.118H188.378ZM199.065 111.118C199.137 110.002 199.563 109.132 200.343 108.508C201.135 107.884 202.143 107.572 203.367 107.572C204.207 107.572 204.933 107.722 205.545 108.022C206.157 108.322 206.619 108.73 206.931 109.246C207.243 109.762 207.399 110.344 207.399 110.992C207.399 111.736 207.201 112.372 206.805 112.9C206.409 113.428 205.935 113.782 205.383 113.962V114.034C206.091 114.25 206.643 114.646 207.039 115.222C207.435 115.786 207.633 116.512 207.633 117.4C207.633 118.108 207.471 118.738 207.147 119.29C206.823 119.842 206.343 120.28 205.707 120.604C205.071 120.916 204.309 121.072 203.421 121.072C202.125 121.072 201.057 120.742 200.217 120.082C199.389 119.41 198.945 118.45 198.885 117.202H200.865C200.913 117.838 201.159 118.36 201.603 118.768C202.047 119.164 202.647 119.362 203.403 119.362C204.135 119.362 204.699 119.164 205.095 118.768C205.491 118.36 205.689 117.838 205.689 117.202C205.689 116.362 205.419 115.768 204.879 115.42C204.351 115.06 203.535 114.88 202.431 114.88H201.963V113.188H202.449C203.421 113.176 204.159 113.014 204.663 112.702C205.179 112.39 205.437 111.898 205.437 111.226C205.437 110.65 205.251 110.194 204.879 109.858C204.507 109.51 203.979 109.336 203.295 109.336C202.623 109.336 202.101 109.51 201.729 109.858C201.357 110.194 201.135 110.614 201.063 111.118H199.065ZM209.465 111.046C209.465 110.17 209.717 109.486 210.221 108.994C210.737 108.49 211.397 108.238 212.201 108.238C213.005 108.238 213.659 108.49 214.163 108.994C214.679 109.486 214.937 110.17 214.937 111.046C214.937 111.922 214.679 112.612 214.163 113.116C213.659 113.62 213.005 113.872 212.201 113.872C211.397 113.872 210.737 113.62 210.221 113.116C209.717 112.612 209.465 111.922 209.465 111.046ZM220.445 108.472L213.263 121H211.247L218.429 108.472H220.445ZM212.201 109.48C211.445 109.48 211.067 110.002 211.067 111.046C211.067 112.102 211.445 112.63 212.201 112.63C212.561 112.63 212.837 112.504 213.029 112.252C213.233 111.988 213.335 111.586 213.335 111.046C213.335 110.002 212.957 109.48 212.201 109.48ZM216.791 118.408C216.791 117.532 217.043 116.848 217.547 116.356C218.063 115.852 218.723 115.6 219.527 115.6C220.319 115.6 220.967 115.852 221.471 116.356C221.987 116.848 222.245 117.532 222.245 118.408C222.245 119.284 221.987 119.974 221.471 120.478C220.967 120.982 220.319 121.234 219.527 121.234C218.723 121.234 218.063 120.982 217.547 120.478C217.043 119.974 216.791 119.284 216.791 118.408ZM219.509 116.842C218.753 116.842 218.375 117.364 218.375 118.408C218.375 119.452 218.753 119.974 219.509 119.974C220.265 119.974 220.643 119.452 220.643 118.408C220.643 117.364 220.265 116.842 219.509 116.842Z" fill="#2D3134"/>
<path d="M71.6806 185.642H65.6506V189.224C65.9026 188.888 66.2746 188.606 66.7666 188.378C67.2706 188.15 67.8046 188.036 68.3686 188.036C69.3766 188.036 70.1926 188.252 70.8166 188.684C71.4526 189.116 71.9026 189.662 72.1666 190.322C72.4426 190.982 72.5806 191.678 72.5806 192.41C72.5806 193.298 72.4066 194.09 72.0586 194.786C71.7226 195.47 71.2126 196.01 70.5286 196.406C69.8566 196.802 69.0286 197 68.0446 197C66.7366 197 65.6866 196.676 64.8946 196.028C64.1026 195.38 63.6286 194.522 63.4726 193.454H65.4706C65.6026 194.018 65.8966 194.468 66.3526 194.804C66.8086 195.128 67.3786 195.29 68.0626 195.29C68.9146 195.29 69.5506 195.032 69.9706 194.516C70.4026 194 70.6186 193.316 70.6186 192.464C70.6186 191.6 70.4026 190.94 69.9706 190.484C69.5386 190.016 68.9026 189.782 68.0626 189.782C67.4746 189.782 66.9766 189.932 66.5686 190.232C66.1726 190.52 65.8846 190.916 65.7046 191.42H63.7606V183.842H71.6806V185.642ZM83.0327 185.462L78.0287 197H75.9587L81.0167 185.678H74.3567V183.932H83.0327V185.462ZM84.465 187.046C84.465 186.17 84.717 185.486 85.221 184.994C85.737 184.49 86.397 184.238 87.201 184.238C88.005 184.238 88.659 184.49 89.163 184.994C89.679 185.486 89.937 186.17 89.937 187.046C89.937 187.922 89.679 188.612 89.163 189.116C88.659 189.62 88.005 189.872 87.201 189.872C86.397 189.872 85.737 189.62 85.221 189.116C84.717 188.612 84.465 187.922 84.465 187.046ZM95.445 184.472L88.263 197H86.247L93.429 184.472H95.445ZM87.201 185.48C86.445 185.48 86.067 186.002 86.067 187.046C86.067 188.102 86.445 188.63 87.201 188.63C87.561 188.63 87.837 188.504 88.029 188.252C88.233 187.988 88.335 187.586 88.335 187.046C88.335 186.002 87.957 185.48 87.201 185.48ZM91.791 194.408C91.791 193.532 92.043 192.848 92.547 192.356C93.063 191.852 93.723 191.6 94.527 191.6C95.319 191.6 95.967 191.852 96.471 192.356C96.987 192.848 97.245 193.532 97.245 194.408C97.245 195.284 96.987 195.974 96.471 196.478C95.967 196.982 95.319 197.234 94.527 197.234C93.723 197.234 93.063 196.982 92.547 196.478C92.043 195.974 91.791 195.284 91.791 194.408ZM94.509 192.842C93.753 192.842 93.375 193.364 93.375 194.408C93.375 195.452 93.753 195.974 94.509 195.974C95.265 195.974 95.643 195.452 95.643 194.408C95.643 193.364 95.265 192.842 94.509 192.842Z" fill="#2D3134"/>
<defs>
<linearGradient id="paint0_linear_3_411" x1="116.5" y1="0" x2="116.5" y2="233" gradientUnits="userSpaceOnUse">
<stop stop-color="#0968C0"/>
<stop offset="1" stop-color="#0968C0" stop-opacity="0.55"/>
</linearGradient>
<linearGradient id="paint1_linear_3_411" x1="116.5" y1="0" x2="116.5" y2="233" gradientUnits="userSpaceOnUse">
<stop stop-color="#F04367"/>
<stop offset="1" stop-color="#F04367" stop-opacity="0.55"/>
</linearGradient>
<linearGradient id="paint2_linear_3_411" x1="116.5" y1="-1.90555e-06" x2="180.44" y2="216.744" gradientUnits="userSpaceOnUse">
<stop stop-color="#16B455"/>
<stop offset="1" stop-color="#42FC6B"/>
</linearGradient>
</defs>
</svg>
