<svg width="20" height="20" viewBox="0 0 20 20" fill="none" xmlns="http://www.w3.org/2000/svg">
<path d="M19.8178 18.9326L13.7651 12.8206C14.8932 11.4646 15.5732 9.71994 15.5732 7.81497C15.5732 3.49892 12.0869 0 7.78658 0C3.48621 0 0 3.49892 0 7.81497C0 12.131 3.48621 15.6299 7.78658 15.6299C9.74039 15.6299 11.5251 14.906 12.8924 13.7125L18.9366 19.8169C19.1799 20.061 19.5745 20.061 19.8178 19.8169C20.0607 19.5727 20.0608 19.177 19.8178 18.9326ZM7.78658 14.3899C4.16862 14.3899 1.23557 11.4461 1.23557 7.81497C1.23557 4.18382 4.16862 1.24008 7.78658 1.24008C11.4045 1.24008 14.3376 4.18382 14.3376 7.81497C14.3376 11.4461 11.4045 14.3899 7.78658 14.3899Z" fill="white"/>
</svg>
