<svg width="21" height="20" viewBox="0 0 21 20" fill="none" xmlns="http://www.w3.org/2000/svg">
<g clip-path="url(#clip0_14_406)">
<path fill-rule="evenodd" clip-rule="evenodd" d="M5.40002 3.09997H16.1C16.8 3.09997 17.4 3.59997 17.6 4.39997C17.1 4.19997 16.6 4.09997 16 4.09997H5.50002C4.90002 4.09997 4.40002 4.19997 3.90002 4.39997C4.10002 3.69997 4.70002 3.09997 5.40002 3.09997ZM2.80002 7.29997C2.87893 7.31425 2.95991 7.31257 3.03816 7.29502C3.11641 7.27747 3.19035 7.24441 3.25561 7.1978C3.32087 7.15119 3.37612 7.09196 3.4181 7.02363C3.46008 6.9553 3.48794 6.87925 3.50002 6.79997L3.70002 5.39997C3.80002 5.19997 4.40002 4.89997 5.50002 4.89997H16C17.1 4.89997 17.7 5.19997 17.7 5.39997L18 6.79997C18.0265 6.9591 18.1152 7.10118 18.2465 7.19494C18.3777 7.28871 18.5409 7.32649 18.7 7.29997C18.8591 7.27345 19.0012 7.1848 19.095 7.05352C19.1888 6.92225 19.2265 6.7591 19.2 6.59997L18.8 4.39997C18.7494 3.7191 18.4428 3.08267 17.9418 2.6188C17.4409 2.15494 16.7828 1.89809 16.1 1.89997H5.40002C4.00002 1.99997 2.80002 2.99997 2.70002 4.39997L2.30002 6.59997C2.28574 6.67888 2.28742 6.75986 2.30497 6.83811C2.32252 6.91636 2.35558 6.9903 2.40219 7.05556C2.4488 7.12082 2.50802 7.17607 2.57635 7.21805C2.64469 7.26003 2.72074 7.28788 2.80002 7.29997ZM8.40002 1.29997H13.1C13.2724 1.28671 13.4325 1.20551 13.545 1.07423C13.6575 0.942957 13.7133 0.772359 13.7 0.599969C13.6868 0.427578 13.6056 0.267516 13.4743 0.154994C13.343 0.042472 13.1724 -0.0132922 13 -3.13974e-05H8.40002C8.24089 -3.13974e-05 8.08828 0.0631827 7.97576 0.175705C7.86323 0.288226 7.80002 0.440839 7.80002 0.599969C7.80002 0.759099 7.86323 0.911711 7.97576 1.02423C8.08828 1.13675 8.24089 1.19997 8.40002 1.19997V1.29997ZM19.2 14.8C19.2 14.8788 19.1845 14.9568 19.1543 15.0296C19.1242 15.1024 19.08 15.1685 19.0243 15.2242C18.9686 15.2799 18.9024 15.3241 18.8296 15.3543C18.7568 15.3844 18.6788 15.4 18.6 15.4H2.90002C2.74089 15.4 2.58828 15.3368 2.47575 15.2242C2.36323 15.1117 2.30002 14.9591 2.30002 14.8V12C2.3129 11.6585 2.39299 11.3228 2.5357 11.0123C2.67841 10.7017 2.88094 10.4224 3.13171 10.1902C3.38248 9.958 3.67657 9.77752 3.99715 9.65909C4.31773 9.54065 4.65852 9.48658 5.00002 9.49997H16.7C17.3896 9.49997 18.0509 9.7739 18.5385 10.2615C19.0261 10.7491 19.3 11.4104 19.3 12.1V14.9L19.2 14.8ZM20.5 8.59997C20.5639 8.54366 20.615 8.47442 20.65 8.39683C20.685 8.31925 20.7032 8.23509 20.7032 8.14997C20.7032 8.06484 20.685 7.98069 20.65 7.90311C20.615 7.82552 20.5639 7.75627 20.5 7.69997C20.4437 7.63612 20.3745 7.58499 20.2969 7.54997C20.2193 7.51495 20.1351 7.49683 20.05 7.49683C19.9649 7.49683 19.8807 7.51495 19.8032 7.54997C19.7256 7.58499 19.6563 7.63612 19.6 7.69997L18.8 8.49997C18.7405 8.58923 18.7059 8.69283 18.7 8.79997C18.0738 8.39878 17.3437 8.19016 16.6 8.19997H4.90002C4.10002 8.19997 3.40002 8.39997 2.70002 8.89997C2.71498 8.75901 2.67956 8.6173 2.60002 8.49997L1.80002 7.69997C1.68067 7.58062 1.5188 7.51357 1.35002 7.51357C1.18124 7.51357 1.01937 7.58062 0.900019 7.69997C0.780672 7.81932 0.713623 7.98119 0.713623 8.14997C0.713623 8.31875 0.780672 8.48062 0.900019 8.59997L1.70002 9.39997C1.78928 9.45953 1.89288 9.49406 2.00002 9.49997C1.40896 10.1978 1.08941 11.0855 1.10002 12V14.8C1.10002 15.8 1.90002 16.6 2.90002 16.6H18.6C19.6 16.6 20.4 15.8 20.4 14.8V12C20.4 11 20 10.2 19.4 9.49997C19.5072 9.49406 19.6108 9.45953 19.7 9.39997L20.5 8.59997ZM5.50002 17.6C5.42691 17.6168 5.36002 17.6539 5.30697 17.7069C5.25392 17.76 5.21686 17.8269 5.20002 17.9V18.4C5.20002 18.453 5.17895 18.5039 5.14144 18.5414C5.10393 18.5789 5.05306 18.6 5.00002 18.6H3.00002C2.94698 18.6 2.89611 18.5789 2.8586 18.5414C2.82109 18.5039 2.80002 18.453 2.80002 18.4V18C2.80002 17.8939 2.75788 17.7921 2.68286 17.7171C2.60785 17.6421 2.50611 17.6 2.40002 17.6C2.29393 17.6 2.19219 17.6421 2.11718 17.7171C2.04216 17.7921 2.00002 17.8939 2.00002 18V18.5C2.00002 19 2.40002 19.5 3.00002 19.5H5.00002C5.50002 19.5 6.00002 19 6.00002 18.5V18C6.00002 17.8939 5.95788 17.7921 5.88286 17.7171C5.80785 17.6421 5.70611 17.6 5.60002 17.6H5.50002ZM19.1 17.6C18.9939 17.6 18.8922 17.6421 18.8172 17.7171C18.7422 17.7921 18.7 17.8939 18.7 18V18.5C18.7 18.553 18.6789 18.6039 18.6414 18.6414C18.6039 18.6789 18.5531 18.7 18.5 18.7H16.5C16.447 18.7 16.3961 18.6789 16.3586 18.6414C16.3211 18.6039 16.3 18.553 16.3 18.5V18C16.3 17.8939 16.2579 17.7921 16.1829 17.7171C16.1078 17.6421 16.0061 17.6 15.9 17.6C15.7939 17.6 15.6922 17.6421 15.6172 17.7171C15.5422 17.7921 15.5 17.8939 15.5 18V18.5C15.5 19 16 19.5 16.5 19.5H18.5C19.1 19.5 19.5 19 19.5 18.5V18C19.5 17.8939 19.4579 17.7921 19.3829 17.7171C19.3078 17.6421 19.2061 17.6 19.1 17.6Z" fill="#292F37"/>
<path fill-rule="evenodd" clip-rule="evenodd" d="M5.99995 10.8H4.29995C4.14082 10.8 3.98821 10.8633 3.87569 10.9758C3.76317 11.0883 3.69995 11.2409 3.69995 11.4C3.69995 11.5592 3.76317 11.7118 3.87569 11.8243C3.98821 11.9368 4.14082 12 4.29995 12H6.19995C6.27874 12 6.35677 11.9845 6.42956 11.9544C6.50236 11.9242 6.5685 11.88 6.62422 11.8243C6.67993 11.7686 6.72413 11.7025 6.75428 11.6297C6.78443 11.5569 6.79995 11.4788 6.79995 11.4C6.79995 11.3213 6.78443 11.2432 6.75428 11.1704C6.72413 11.0976 6.67993 11.0315 6.62422 10.9758C6.5685 10.9201 6.50236 10.8759 6.42956 10.8457C6.35677 10.8156 6.27874 10.8 6.19995 10.8H5.99995ZM12.8 11H8.79995C8.69386 11 8.59212 11.0422 8.51711 11.1172C8.44209 11.1922 8.39995 11.294 8.39995 11.4C8.39995 11.5061 8.44209 11.6079 8.51711 11.6829C8.59212 11.7579 8.69386 11.8 8.79995 11.8H12.7C12.806 11.8 12.9078 11.7579 12.9828 11.6829C13.0578 11.6079 13.1 11.5061 13.1 11.4C13.1 11.294 13.0578 11.1922 12.9828 11.1172C12.9078 11.0422 12.806 11 12.7 11H12.8ZM12.7 12.8H8.79995C8.69386 12.8 8.59212 12.8422 8.51711 12.9172C8.44209 12.9922 8.39995 13.094 8.39995 13.2C8.39995 13.3061 8.44209 13.4079 8.51711 13.4829C8.59212 13.5579 8.69386 13.6 8.79995 13.6H12.7C12.806 13.6 12.9078 13.5579 12.9828 13.4829C13.0578 13.4079 13.1 13.3061 13.1 13.2C13.1 13.094 13.0578 12.9922 12.9828 12.9172C12.9078 12.8422 12.806 12.8 12.7 12.8ZM17.2 10.8H15.4C15.2408 10.8 15.0882 10.8633 14.9757 10.9758C14.8632 11.0883 14.8 11.2409 14.8 11.4C14.8 11.5592 14.8632 11.7118 14.9757 11.8243C15.0882 11.9368 15.2408 12 15.4 12H17.2C17.2787 12 17.3568 11.9845 17.4296 11.9544C17.5024 11.9242 17.5685 11.88 17.6242 11.8243C17.6799 11.7686 17.7241 11.7025 17.7543 11.6297C17.7844 11.5569 17.8 11.4788 17.8 11.4C17.8 11.3213 17.7844 11.2432 17.7543 11.1704C17.7241 11.0976 17.6799 11.0315 17.6242 10.9758C17.5685 10.9201 17.5024 10.8759 17.4296 10.8457C17.3568 10.8156 17.2787 10.8 17.2 10.8Z" fill="#292F37"/>
</g>
<defs>
<clipPath id="clip0_14_406">
<rect width="21" height="20" fill="white"/>
</clipPath>
</defs>
</svg>
