<svg width="26" height="20" viewBox="0 0 26 20" fill="none" xmlns="http://www.w3.org/2000/svg">
<path fill-rule="evenodd" clip-rule="evenodd" d="M14.2601 17.9617C14.1047 18.1275 13.9168 18.2598 13.708 18.3502C13.4992 18.4406 13.274 18.4873 13.0463 18.4873C12.8187 18.4873 12.5935 18.4406 12.3846 18.3502C12.1758 18.2598 11.9879 18.1275 11.8325 17.9617C11.6261 17.8267 11.4525 17.6476 11.3242 17.4374C11.196 17.2272 11.1164 16.9911 11.0911 16.7463C11.0659 16.5015 11.0956 16.2542 11.1783 16.0223C11.2609 15.7905 11.3944 15.5799 11.5689 15.4059C11.7434 15.2319 11.9546 15.0988 12.1872 15.0164C12.4197 14.934 12.6678 14.9043 12.9133 14.9295C13.1588 14.9547 13.3956 15.0341 13.6065 15.162C13.8174 15.2898 13.997 15.4629 14.1324 15.6687C14.7712 16.3056 14.7712 17.4521 14.1324 17.9617H14.2601ZM10.8104 14.6496C10.2251 15.2449 9.89726 16.0453 9.89726 16.8789C9.89726 17.7125 10.2251 18.5129 10.8104 19.1082C11.3945 19.6697 12.1711 19.9885 12.9824 19.9999C13.7491 19.9999 14.6434 19.7451 15.2823 19.1082C15.7436 18.4949 15.9676 17.7363 15.9131 16.9716C15.8586 16.2069 15.5293 15.4875 14.9856 14.9454C14.4419 14.4034 13.7203 14.075 12.9533 14.0207C12.1864 13.9663 11.4255 14.1896 10.8104 14.6496ZM6.97727 11.3375C6.84173 11.4895 6.77231 11.689 6.78429 11.8921C6.79627 12.0952 6.88867 12.2852 7.04116 12.4203C7.19365 12.5555 7.39374 12.6247 7.59741 12.6127C7.80108 12.6008 7.99165 12.5086 8.1272 12.3566C8.7693 11.7057 9.53494 11.1887 10.3795 10.8358C11.224 10.4829 12.1306 10.3012 13.0463 10.3012C13.962 10.3012 14.8686 10.4829 15.7131 10.8358C16.5577 11.1887 17.3233 11.7057 17.9654 12.3566C18.1085 12.4247 18.2692 12.447 18.4255 12.4202C18.5817 12.3935 18.7258 12.3191 18.8379 12.2074C18.95 12.0956 19.0246 11.9519 19.0514 11.7962C19.0782 11.6404 19.0559 11.4801 18.9876 11.3375C18.203 10.5441 17.2681 9.91404 16.2372 9.48401C15.2063 9.05397 14.0999 8.83252 12.9824 8.83252C11.8649 8.83252 10.7586 9.05397 9.72765 9.48401C8.69673 9.91404 7.76183 10.5441 6.97727 11.3375Z" fill="#292F37"/>
<path fill-rule="evenodd" clip-rule="evenodd" d="M3.65476 8.28014C3.51922 8.43217 3.4498 8.63166 3.46178 8.83473C3.47376 9.03779 3.56616 9.22779 3.71865 9.36293C3.87114 9.49808 4.07123 9.56729 4.2749 9.55534C4.47857 9.5434 4.66914 9.45127 4.80469 9.29924C6.98147 7.15215 9.9199 5.94786 12.9819 5.94786C16.044 5.94786 18.9824 7.15215 21.1592 9.29924C21.2263 9.37452 21.3076 9.43588 21.3985 9.47983C21.4894 9.52377 21.5881 9.54943 21.689 9.55534C21.7898 9.56126 21.8908 9.54731 21.9863 9.5143C22.0817 9.48128 22.1697 9.42985 22.2452 9.36293C22.3207 9.29602 22.3823 9.21493 22.4263 9.1243C22.4704 9.03367 22.4961 8.93527 22.5021 8.83473C22.508 8.73418 22.494 8.63345 22.4609 8.5383C22.4278 8.44314 22.3762 8.35542 22.3091 8.28014C17.1983 3.18462 8.76554 3.18462 3.65476 8.28014Z" fill="#292F37"/>
<path fill-rule="evenodd" clip-rule="evenodd" d="M25.6314 5.22299C23.9744 3.56129 22.0032 2.24399 19.8319 1.34744C17.6605 0.450894 15.3323 -0.00707345 12.9822 8.25851e-05C8.25472 8.25851e-05 3.78279 1.78351 0.333013 5.0956C0.146637 5.24764 0.0284703 5.46726 0.00450892 5.70616C-0.0194525 5.94506 0.0527538 6.18366 0.205243 6.36948C0.357733 6.5553 0.578014 6.67312 0.817628 6.69701C1.05724 6.7209 1.29656 6.6489 1.48294 6.49687C2.96281 4.92693 4.7423 3.66749 6.71697 2.79248C8.69163 1.91747 10.8217 1.44451 12.9822 1.40135C17.3263 1.40135 21.415 3.05739 24.4814 6.11471C24.6 6.28363 24.7811 6.39867 24.9848 6.4345C25.1884 6.47034 25.398 6.42404 25.5675 6.30579C25.7369 6.18754 25.8523 6.00703 25.8882 5.80396C25.9242 5.6009 25.8777 5.39192 25.7591 5.22299" fill="#292F37"/>
</svg>
